<svg xmlns="http://www.w3.org/2000/svg">
    <symbol id="custom-marker" viewBox="0 0 46 50">
        <path fill-rule="evenodd" clip-rule="evenodd" d="M22.9998 0C27.3773 0 30.9748 1.48 33.4198 2.8975C36.7298 4.815 37.9998 8.4225 37.9998 11.6425V15.9175C38.9923 16.55 39.9173 17.1675 40.7373 17.7375L42.1498 18.735L42.3998 18.915C43.1298 19.4417 43.8489 19.985 44.5573 20.545C45.6223 21.395 45.8073 22.995 44.9523 24.0625C44.538 24.5798 43.9354 24.9114 43.2767 24.9845C42.6181 25.0577 41.9574 24.8663 41.4398 24.4525C40.3211 23.5717 39.1738 22.7279 37.9998 21.9225V38.965C37.9998 41.8917 36.8372 44.6985 34.7677 46.7679C32.6982 48.8374 29.8914 50 26.9648 50H19.0348C16.1081 50 13.3013 48.8374 11.2318 46.7679C9.16238 44.6985 7.99976 41.8917 7.99976 38.965V21.9225C6.83226 22.7325 5.67476 23.565 4.56226 24.4525C4.04443 24.8669 3.38318 25.0586 2.72399 24.9855C2.0648 24.9123 1.46167 24.5803 1.04726 24.0625C0.632864 23.5447 0.441145 22.8834 0.514284 22.2242C0.587423 21.565 0.919429 20.9619 1.43726 20.5475C2.14726 19.9892 2.8681 19.445 3.59976 18.915L4.66476 18.1525C5.62476 17.4775 6.75976 16.7075 7.99976 15.92V11.6425C7.99976 8.42 9.26976 4.815 12.5798 2.8975C15.0248 1.48 18.6248 0 22.9998 0ZM32.9998 23.535C31.4773 25.0575 30.4998 26.9475 30.4998 29.1425V37.5C30.4998 38.8261 29.973 40.0979 29.0353 41.0355C28.0976 41.9732 26.8258 42.5 25.4998 42.5H20.4998C19.1737 42.5 17.9019 41.9732 16.9642 41.0355C16.0266 40.0979 15.4998 38.8261 15.4998 37.5V29.1425C15.4998 26.9475 14.5223 25.0575 12.9998 23.535V38.965C12.9998 39.7575 13.1559 40.5423 13.4592 41.2745C13.7624 42.0067 14.207 42.672 14.7674 43.2324C15.3278 43.7928 15.9931 44.2373 16.7253 44.5406C17.4575 44.8439 18.2422 45 19.0348 45H26.9648C27.7573 45 28.5421 44.8439 29.2743 44.5406C30.0065 44.2373 30.6718 43.7928 31.2322 43.2324C31.7926 42.672 32.2371 42.0067 32.5404 41.2745C32.8437 40.5423 32.9998 39.7575 32.9998 38.965V23.535ZM22.9998 5C19.7573 5 17.0248 6.1 15.0873 7.225C13.8073 7.9625 12.9998 9.5575 12.9998 11.64V13.04C13.9023 12.5775 14.8223 12.1425 15.7398 11.755C18.0848 10.77 20.6348 10 22.9998 10C25.3648 10 27.9148 10.77 30.2598 11.7575C31.1773 12.145 32.0973 12.58 32.9998 13.04V11.64C32.9998 9.56 32.1923 7.965 30.9123 7.2225C28.9748 6.1 26.2423 5 22.9998 5Z" fill="black"/>

    </symbol>
</svg>
